<?xml version="1.0" encoding="UTF-8"?>
<svg width="554px" height="554px" viewBox="0 0 554 554" version="1.1" xmlns="http://www.w3.org/2000/svg" xmlns:xlink="http://www.w3.org/1999/xlink">
    <title>点缀层/文件</title>
    <defs>
        <polygon id="path-1" points="0.0002 0.776 224.5392 0.776 224.5392 60.0945 0.0002 60.0945"></polygon>
        <polygon id="path-3" points="0 0.2001 399.0209 0.2001 399.0209 275 0 275"></polygon>
    </defs>
    <g id="点缀层/文件" stroke="none" stroke-width="1" fill="none" fill-rule="evenodd">
        <g id="编组" transform="translate(77.000000, 116.000000)">
            <g transform="translate(0.000000, 0.224000)">
                <mask id="mask-2" fill="white">
                    <use xlink:href="#path-1"></use>
                </mask>
                <g id="Clip-2"></g>
                <path d="M224.5392,60.0945 L0.0002,60.0945 L0.0002,18.4695 C0.0002,8.6975 7.9212,0.7755 17.6932,0.7755 L206.8462,0.7755 C216.6172,0.7755 224.5392,8.6975 224.5392,18.4695 L224.5392,60.0945 Z" id="Fill-1" fill="#5558DF" mask="url(#mask-2)"></path>
            </g>
            <g transform="translate(0.000000, 46.224000)">
                <mask id="mask-4" fill="white">
                    <use xlink:href="#path-3"></use>
                </mask>
                <g id="Clip-4"></g>
                <path d="M384.1349,275.0001 L14.8859,275.0001 C6.6639,275.0001 -0.0001,268.3351 -0.0001,260.1141 L-0.0001,15.0861 C-0.0001,6.8651 6.6639,0.2001 14.8859,0.2001 L384.1349,0.2001 C392.3569,0.2001 399.0209,6.8651 399.0209,15.0861 L399.0209,260.1141 C399.0209,268.3351 392.3569,275.0001 384.1349,275.0001" id="Fill-3" fill="#BECAFF" mask="url(#mask-4)"></path>
            </g>
            <path d="M236.9776,154.2436 L59.8206,154.2436 C51.8406,154.2436 45.3726,147.7746 45.3726,139.7956 C45.3726,131.8156 51.8406,125.3466 59.8206,125.3466 L236.9776,125.3466 C244.9566,125.3466 251.4256,131.8156 251.4256,139.7956 C251.4256,147.7746 244.9566,154.2436 236.9776,154.2436" id="Fill-5" fill="#F5F7FF"></path>
            <path d="M195.7052,207.3183 L58.2302,207.3183 C51.1292,207.3183 45.3722,201.5613 45.3722,194.4603 L45.3722,191.2793 C45.3722,184.1783 51.1292,178.4213 58.2302,178.4213 L195.7052,178.4213 C202.8062,178.4213 208.5622,184.1783 208.5622,191.2793 L208.5622,194.4603 C208.5622,201.5613 202.8062,207.3183 195.7052,207.3183" id="Fill-7" fill="#F5F7FF"></path>
            <path d="M145.1114,260.3928 L55.9434,260.3928 C50.1044,260.3928 45.3724,255.6598 45.3724,249.8208 L45.3724,242.0678 C45.3724,236.2288 50.1044,231.4958 55.9434,231.4958 L145.1114,231.4958 C150.9504,231.4958 155.6834,236.2288 155.6834,242.0678 L155.6834,249.8208 C155.6834,255.6598 150.9504,260.3928 145.1114,260.3928" id="Fill-9" fill="#F5F7FF"></path>
        </g>
    </g>
</svg>